<?xml version="1.0" encoding="UTF-8" standalone="no"?>
<svg width="1024px" height="1024px" viewBox="0 0 1024 1024" version="1.1" xmlns="http://www.w3.org/2000/svg" xmlns:xlink="http://www.w3.org/1999/xlink" preserveAspectRatio="xMidYMid">
	<g fill-rule="evenodd">
		<path d="M511.998364,1024 C794.767249,1024 1023.99673,794.769791 1023.99673,512.000002 C1023.99673,229.230208 794.767249,0 511.998364,0 C229.229475,0 0,229.230208 0,512.000002 C0,794.769791 229.229475,1024 511.998364,1024 L511.998364,1024 Z M510.311365,876.228024 C710.231681,876.228024 872.299118,714.160069 872.299118,514.239114 C872.299118,314.31816 710.231681,152.250205 510.311365,152.250205 C310.391049,152.250205 148.323612,314.31816 148.323612,514.239114 C148.323612,714.160069 310.391049,876.228024 510.311365,876.228024 L510.311365,876.228024 Z" fill="#2B2323"></path>
		<path d="M511.998365,907.315049 C731.603441,907.315049 909.62853,729.289961 909.62853,509.684884 C909.62853,290.079805 731.603441,112.054715 511.998365,112.054715 C292.393286,112.054715 114.368196,290.079805 114.368196,509.684884 C114.368196,729.289961 292.393286,907.315049 511.998365,907.315049 L511.998365,907.315049 Z M510.688201,792.552167 C665.951096,792.552167 791.81654,666.686723 791.81654,511.423828 C791.81654,356.160931 665.951096,230.295486 510.688201,230.295486 C355.425304,230.295486 229.559859,356.160931 229.559859,511.423828 C229.559859,666.686723 355.425304,792.552167 510.688201,792.552167 L510.688201,792.552167 Z" fill="#FF0000"></path>
		<path d="M511.998363,808.433435 C676.99263,808.433435 810.746915,674.679149 810.746915,509.684883 C810.746915,344.690612 676.99263,210.93633 511.998363,210.93633 C347.004093,210.93633 213.24981,344.690612 213.24981,509.684883 C213.24981,674.679149 347.004093,808.433435 511.998363,808.433435 L511.998363,808.433435 Z M511.998363,720.621212 C628.495281,720.621212 722.934693,626.1818 722.934693,509.684882 C722.934693,393.187964 628.495281,298.748553 511.998363,298.748553 C395.501445,298.748553 301.062033,393.187964 301.062033,509.684882 C301.062033,626.1818 395.501445,720.621212 511.998363,720.621212 L511.998363,720.621212 Z" fill="#FF9800"></path>
	</g>
</svg>
