<?xml version="1.0" encoding="UTF-8"?>
<svg width="512px" height="189px" viewBox="0 0 512 189" version="1.1" xmlns="http://www.w3.org/2000/svg" xmlns:xlink="http://www.w3.org/1999/xlink" preserveAspectRatio="xMidYMid">
    <g>
        <g fill="#00D8FF">
            <path d="M174.026451,61.0369595 C171.830747,60.2811976 169.555549,59.5661245 167.212913,58.889857 C167.597953,57.3184295 167.951344,55.7673466 168.265555,54.2426363 C173.423273,29.206418 170.050977,9.03706612 158.53559,2.39645723 C147.493778,-3.97100734 129.435738,2.66809456 111.197987,18.5398506 C109.444212,20.0660679 107.685539,21.6819519 105.927621,23.3754465 C104.756302,22.2549897 103.586868,21.1722081 102.420448,20.1365203 C83.3067518,3.16540549 64.1482217,-3.98645414 52.6441373,2.67336908 C41.6128749,9.05929449 38.3460692,28.0204067 42.9887688,51.7474161 C43.4371022,54.039191 43.9611624,56.3795667 44.5537914,58.7591245 C41.8423163,59.5288262 39.224652,60.3493894 36.7200129,61.2223209 C14.3112544,69.0350014 0,81.2794009 0,93.9800456 C0,107.097378 15.3631425,120.254267 38.7036056,128.231964 C40.5455401,128.861515 42.4567967,129.456781 44.4264497,130.021907 C43.7871037,132.595492 43.2310196,135.117461 42.7642253,137.577267 C38.3374039,160.892488 41.7944689,179.405643 52.7963446,185.751257 C64.1602778,192.30446 83.2321543,185.568533 101.80333,169.335096 C103.271151,168.051883 104.744246,166.691059 106.219979,165.264681 C108.132743,167.106615 110.042492,168.849841 111.94207,170.484939 C129.930412,185.964498 147.696847,192.215171 158.68855,185.85185 C170.041181,179.279808 173.730702,159.392266 168.940691,135.195826 C168.574866,133.347863 168.149138,131.459965 167.671042,129.538537 C169.010391,129.14257 170.325251,128.733797 171.607334,128.308822 C195.871967,120.269337 211.65933,107.272566 211.65933,93.9800456 C211.65933,81.2334376 196.886556,68.9065294 174.026451,61.0369595 L174.026451,61.0369595 Z M168.763619,119.726063 C167.606241,120.109218 166.418723,120.479565 165.208599,120.838608 C162.529902,112.358325 158.914601,103.340795 154.490417,94.0241262 C158.712287,84.929362 162.187811,76.0271189 164.791536,67.6018415 C166.956723,68.228378 169.058238,68.889199 171.083274,69.5865646 C190.669792,76.3292729 202.617312,86.2984746 202.617312,93.9800456 C202.617312,102.162319 189.714353,112.784053 168.763619,119.726063 L168.763619,119.726063 Z M160.070472,136.95186 C162.188564,147.651206 162.491095,157.324658 161.088076,164.886799 C159.827468,171.681877 157.292312,176.212304 154.157746,178.026736 C147.487373,181.887678 133.222837,176.868981 117.838972,163.630713 C116.075402,162.11316 114.299022,160.492756 112.516991,158.777785 C118.480956,152.255099 124.44153,144.672238 130.258938,136.250727 C140.491112,135.342759 150.158161,133.85836 158.924773,131.831818 C159.35653,133.573537 159.740062,135.281724 160.070472,136.95186 L160.070472,136.95186 Z M72.15945,177.359511 C65.6424152,179.661081 60.45192,179.727012 57.3143396,177.917855 C50.6379395,174.067085 47.8624167,159.202761 51.648385,139.263604 C52.0820252,136.980117 52.5981737,134.634468 53.1930631,132.236825 C61.8636051,134.15411 71.4598237,135.533771 81.7164862,136.36526 C87.5730772,144.605931 93.7058261,152.180504 99.8860454,158.812824 C98.5357705,160.116381 97.1907697,161.357399 95.8533051,162.526832 C87.6412687,169.705065 79.4119023,174.797981 72.15945,177.359511 L72.15945,177.359511 Z M41.6279451,119.675955 C31.3072347,116.148438 22.7840023,111.563758 16.9417282,106.560884 C11.6920832,102.065118 9.04164152,97.6017517 9.04164152,93.9800456 C9.04164152,86.2728556 20.5321631,76.4422981 39.6963439,69.7606234 C42.0216496,68.9498557 44.4558362,68.1858053 46.9819502,67.4680951 C49.6305079,76.0836314 53.1049034,85.0913649 57.2977627,94.200068 C53.0506514,103.444025 49.5269015,112.595302 46.8523478,121.311806 C45.0514792,120.794151 43.3067465,120.24937 41.6279451,119.675955 L41.6279451,119.675955 Z M51.8623795,50.0109718 C47.8846449,29.6822543 50.5264213,14.3469914 57.1741884,10.4988591 C64.255219,6.39943406 79.913357,12.2443452 96.416548,26.8980661 C97.4714498,27.8346686 98.5304963,28.814974 99.5925566,29.8291871 C93.4428542,36.4324977 87.3662414,43.9501823 81.5616425,52.1422508 C71.6071332,53.0649135 62.078353,54.547051 53.317391,56.5317739 C52.7665812,54.3161027 52.278689,52.1392369 51.8623795,50.0109718 L51.8623795,50.0109718 Z M143.162651,72.5553605 C141.068294,68.9377997 138.918177,65.4057613 136.726242,61.9701712 C143.479499,62.8238884 149.949816,63.9571547 156.026053,65.3439743 C154.201825,71.1903925 151.928135,77.3031737 149.251697,83.5696691 C147.331776,79.9246054 145.301089,76.2494017 143.162651,72.5553605 L143.162651,72.5553605 Z M105.930634,36.2912161 C110.101265,40.8095881 114.277924,45.8542807 118.386015,51.3277156 C114.246277,51.132182 110.055301,51.0304593 105.829666,51.0304593 C101.643965,51.0304593 97.4838831,51.1299216 93.369764,51.3220644 C97.4819989,45.8994907 101.694826,40.8615795 105.930634,36.2912161 L105.930634,36.2912161 Z M68.4601342,72.6179011 C66.3680372,76.2456342 64.3750257,79.9008702 62.4852439,83.5628877 C59.8521328,77.3182437 57.59954,71.177583 55.7594893,65.2482795 C61.7984272,63.8968745 68.238228,62.7918647 74.9485358,61.9543477 C72.7257063,65.4215848 70.5578824,68.9796191 68.4601342,72.6171476 L68.4601342,72.6179011 L68.4601342,72.6179011 Z M75.1418089,126.650741 C68.2088414,125.877272 61.6722157,124.829152 55.6347847,123.515045 C57.5042221,117.479874 59.806546,111.208105 62.4954161,104.82896 C64.3900957,108.488341 66.391019,112.145084 68.4959255,115.780729 L68.4963022,115.780729 C70.6403909,119.484566 72.8617133,123.112675 75.1418089,126.650741 L75.1418089,126.650741 Z M106.180797,152.306338 C101.895257,147.682476 97.6206432,142.567708 93.4458679,137.066017 C97.4985752,137.225005 101.630401,137.306384 105.829666,137.306384 C110.143839,137.306384 114.408657,137.209182 118.606414,137.022313 C114.48476,142.623091 110.323172,147.74577 106.180797,152.306338 L106.180797,152.306338 Z M149.337973,104.503825 C152.166995,110.951914 154.551827,117.190907 156.445376,123.123224 C150.308483,124.523229 143.682568,125.650845 136.701376,126.488739 C138.898587,123.006808 141.06754,119.414112 143.198819,115.718564 C145.354965,111.979691 147.402228,108.235165 149.337973,104.503825 L149.337973,104.503825 Z M135.366548,111.201323 C132.057923,116.938106 128.661138,122.414555 125.212739,127.583954 C118.931926,128.03304 112.443148,128.264365 105.829666,128.264365 C99.2429325,128.264365 92.8359079,128.059789 86.6662385,127.659303 C83.0788171,122.422091 79.6081894,116.929442 76.3206621,111.250677 L76.3214156,111.250677 C73.0425536,105.587361 70.0247801,99.8761949 67.2903232,94.1970551 C70.0240266,88.5047272 73.0338883,82.787158 76.2939127,77.1340126 L76.2931593,77.1351428 C79.5618487,71.4669276 83.0019599,66.0010275 86.5562261,60.7965925 C92.8509779,60.3207564 99.3058491,60.0724777 105.829289,60.0724777 L105.829666,60.0724777 C112.382492,60.0724777 118.845651,60.3226401 125.138518,60.8026207 C128.638533,65.9690038 132.055285,71.4171964 135.336785,77.0861652 C138.655583,82.8188052 141.70425,88.498322 144.461311,94.0685829 C141.712538,99.734537 138.670653,105.471322 135.366548,111.201323 L135.366548,111.201323 Z M154.019101,10.2298591 C161.106914,14.3172281 163.863221,30.8015808 159.410028,52.4176557 C159.125957,53.7969402 158.806097,55.2018438 158.458732,56.6255849 C149.677425,54.5994193 140.141863,53.0916628 130.158347,52.1550604 C124.342444,43.8729484 118.315562,36.3435845 112.266075,29.8250427 C113.892508,28.260397 115.516681,26.7684639 117.134072,25.3605464 C132.760186,11.7617277 147.36493,6.39265254 154.019101,10.2298591 L154.019101,10.2298591 Z M105.829666,75.0795906 C116.267922,75.0795906 124.730121,83.5414126 124.730121,93.9800456 C124.730121,104.418302 116.267922,112.880502 105.829666,112.880502 C95.3914091,112.880502 86.9292103,104.418302 86.9292103,93.9800456 C86.9292103,83.5414126 95.3914091,75.0795906 105.829666,75.0795906 L105.829666,75.0795906 Z"></path>
        </g>
        <g transform="translate(203.248485, 0.000000)">
            <path d="M156.739042,116.01532 C156.739042,122.370125 152.011912,127.617447 145.882866,128.441548 C138.61713,145.379013 123.817668,161.904033 103.541572,173.610357 C86.5239861,183.435223 68.4900893,188.229449 52.3139696,188.229449 C31.741466,188.229449 14.1721121,180.478252 5.50366966,165.464082 C-8.5743104,141.08051 5.14292857,107.057969 37.6550148,84.0676313 C37.6561989,89.3192953 38.0670649,94.1348337 38.9870731,98.4076815 C36.3636092,100.61949 33.9793237,102.513578 31.6526621,104.953119 C25.665702,111.229383 20.8793704,117.732195 17.6046781,124.675869 C11.49655,137.626631 11.0837106,149.868936 16.4415446,159.149139 C22.4774454,169.603526 35.5525337,175.599564 52.3139696,175.599564 C66.8375478,175.599564 82.7879083,171.008601 97.2266294,162.672483 C105.634186,157.81866 113.109894,151.989178 119.446938,145.345465 C125.433898,139.068807 130.129848,132.365495 133.404935,125.421821 C133.690291,124.81677 133.959465,124.214089 134.218773,123.612985 C132.610831,121.504189 131.653722,118.872042 131.653722,116.01532 C131.653722,109.088223 137.269284,103.473055 144.196381,103.473055 C151.123479,103.473055 156.739042,109.088223 156.739042,116.01532 Z M100.764457,-0.000157873561 C128.76807,-0.000157873561 151.977062,29.5904781 156.164657,68.2635802 C151.796691,65.6385375 147.223489,63.4508047 142.434789,61.722484 C141.864076,58.7335427 141.156408,55.7978839 140.312969,52.923401 C137.870665,44.6003069 134.413628,37.1818284 130.037373,30.8735955 C121.876099,19.1088579 111.479731,12.629727 100.764457,12.629727 C90.0491843,12.629727 79.6528157,19.1088579 71.4915419,30.8735955 C67.1152868,37.1818284 63.6582506,44.6003069 61.2159466,52.923401 C58.6311617,61.7331403 57.3204164,71.1222757 57.3204164,80.8303156 C57.3204164,90.5383555 58.6311617,99.9274909 61.2159466,108.736835 C63.6582506,117.05993 67.1152868,124.478409 71.4915419,130.787035 C71.9450338,131.440238 72.4056299,132.076468 72.8725409,132.696911 C73.6200722,132.557982 74.3897058,132.482203 75.1771002,132.482203 C82.1045921,132.482203 87.7197599,138.097766 87.7197599,145.024468 C87.7197599,151.951565 82.1045921,157.567128 75.1771002,157.567128 C68.2503978,157.567128 62.6348352,151.951565 62.6348352,145.024468 C62.6348352,143.606368 62.873619,142.244314 63.3077713,140.973038 C51.880883,126.175549 44.6905317,104.715401 44.6905317,80.8303156 C44.6905317,36.1888037 69.7955852,-0.000157873561 100.764457,-0.000157873561 Z M149.094923,175.597196 C164.475359,175.597196 176.752002,170.5484 183.333751,161.638805 C187.160606,163.661166 191.414114,164.891395 195.904038,165.51539 C187.185865,180.362609 169.549415,188.227081 149.094923,188.227081 C136.446093,188.227081 122.665309,185.296947 109.119758,179.322223 C114.390761,176.411429 119.060661,173.598517 122.519671,170.982947 C131.47268,174.001094 140.531465,175.597196 149.094923,175.597196 Z M169.846099,104.749897 C163.509054,98.1061825 156.033347,92.2767013 147.626184,87.4228786 C133.187464,79.0863653 117.238287,74.4954021 102.717472,74.4954021 L102.715498,74.4954021 C99.5422399,74.4957969 96.5008058,74.7108996 93.6144824,75.1300539 C93.5410712,75.1407104 93.470028,75.1545243 93.3970116,75.1655754 C92.0858716,80.69115 87.1227216,84.8029669 81.1961481,84.8029669 C74.269051,84.8029669 68.6538832,79.1874044 68.6538832,72.260702 C68.6538832,65.3336048 74.269051,59.7180423 81.1961481,59.7180423 C84.4487382,59.7180423 87.4116302,60.9561657 89.6404102,62.9868143 C89.6573816,62.9836568 89.6739584,62.9797101 89.6913243,62.9765525 C93.8465564,62.238099 98.2082083,61.8659121 102.71313,61.8655174 C118.890829,61.864728 136.920778,66.658164 153.940733,76.4850038 C181.942765,92.6520457 199.519619,118.007724 201.198999,140.951094 C196.113102,140.378801 191.809864,138.691133 187.853552,136.508926 C187.058264,132.678125 185.707655,128.710367 183.804095,124.67354 C180.529008,117.729471 175.833059,111.02616 169.846099,104.749897 Z" fill="#764ABC"></path>
            <path d="M297.803054,85.6990573 C303.359413,94.0663559 292.045404,100.611399 286.978453,92.1979224 C283.889657,86.9257348 279.151872,81.9945541 272.94152,77.6861847 C266.633288,73.3099296 259.214414,69.8528933 250.891715,67.410984 C242.081975,64.8258045 232.69284,63.5150592 222.985195,63.5150592 C213.277155,63.5150592 203.888019,64.8258045 195.07828,67.410984 C193.562299,67.8557928 192.079867,68.3380965 190.625062,68.8500016 C190.445086,75.6196198 184.904514,81.0532331 178.091085,81.0532331 C171.164383,81.0532331 165.548426,75.4380652 165.548426,68.510968 C165.548426,61.5838709 171.164383,55.9683084 178.091085,55.9683084 C180.396039,55.9683084 182.553776,56.593093 184.40958,57.6776844 C195.875147,53.3495807 209.013779,50.8851744 222.985195,50.8851744 C256.779214,50.8851744 285.729279,65.2725866 297.803054,85.6990573 Z M308.34814,116.01532 C308.34814,122.304607 303.718892,127.511278 297.682991,128.417472 C285.538962,148.738562 256.669413,163.033223 222.985116,163.033223 C196.680617,163.033223 173.310989,154.31663 158.550601,140.820414 C151.41077,133.643087 160.005011,125.303811 166.664118,131.12974 C168.571626,132.90858 170.695814,134.614404 173.028395,136.232213 C179.336629,140.608468 186.755107,144.065505 195.078202,146.507809 C203.887941,149.092593 213.277076,150.403339 222.985116,150.403339 C232.692762,150.403339 242.082291,149.092593 250.891635,146.507809 C259.21473,144.065505 266.633603,140.608468 272.941442,136.232213 C278.414523,132.435354 282.739469,128.154218 285.804584,123.582989 C284.210456,121.479324 283.26282,118.858623 283.26282,116.01532 C283.26282,109.088223 288.878382,103.473055 295.805875,103.473055 C302.732577,103.473055 308.34814,109.088223 308.34814,116.01532 Z" fill="#89D96D"></path>
        </g>
    </g>
</svg>
